<svg width="251" height="36" viewBox="0 0 251 36" fill="none" xmlns="http://www.w3.org/2000/svg">
<g clip-path="url(#clip0_32_1494)">
<path d="M49.5324 12.7646C49.5324 14.3667 50.9341 15.4611 53.4134 15.4611C55.2881 15.4611 56.5146 14.5856 56.5146 13.465C56.5146 9.83172 46.4137 12.9047 46.4137 5.67316C46.4137 3.2218 48.8053 0.814209 53.2469 0.814209C58.3544 0.814209 60.0802 3.90468 60.0802 6.37355H56.3482C56.3482 5.06032 55.5597 3.79962 53.2469 3.79962C51.4948 3.79962 50.1632 4.51752 50.1632 5.67316C50.1632 9.81421 60.2554 6.4611 60.2554 13.465C60.2554 16.1615 57.9777 18.4465 53.3871 18.4465C47.8329 18.4465 45.7917 15.4786 45.7917 12.7646H49.5324Z" fill="#171917"/>
<path d="M62.8748 1.17316H74.9557V4.15857H66.4404V7.66051H73.4489V10.6459H66.4404V15.0934H74.9557V18.0788H62.8748V1.17316Z" fill="#171917"/>
<path d="M77.5751 1.17316H83.7076C88.6047 1.17316 91.1103 3.30934 91.1103 7.0039C91.1687 8.09212 90.8653 9.16911 90.2473 10.067C89.6293 10.9649 88.7314 11.6333 87.6936 11.9679L91.1103 18.0963H87.0979L84.0142 12.5807H81.1582V18.07H77.5751V1.17316ZM83.7076 9.57783C85.8977 9.57783 87.4045 8.87744 87.4045 6.95137C87.4045 4.89397 85.8977 4.12355 83.7076 4.12355H81.1582V9.54281L83.7076 9.57783Z" fill="#171917"/>
<path d="M93.7384 1.17316H97.3215V7.63425H104.602V1.17316H108.193V18.07H104.602V10.6372H97.3215V18.07H93.7384V1.17316Z" fill="#171917"/>
<path d="M111.549 1.17316H115.141V18.07H111.549V1.17316Z" fill="#171917"/>
<path d="M121.089 1.17316L125.215 8.22958L129.333 1.17316H133.03L126.897 11.1975V18.0525H123.349V11.1274L117.217 1.17316H121.089Z" fill="#171917"/>
<path d="M142.193 1.17316H148.326C153.381 1.17316 155.728 3.22179 155.728 7.0039C155.728 10.9261 153.179 13.071 148.326 13.071H145.698V18.0525H142.115V1.17316H142.193ZM148.641 10.0769C150.674 10.0068 152.031 9.20137 152.031 7.02141C152.031 4.84144 150.682 4.17607 148.343 4.17607H145.715V10.0769H148.641Z" fill="#171917"/>
<path d="M158.4 1.17316H164.533C169.386 1.17316 171.936 3.30934 171.936 6.98639C171.994 8.07572 171.689 9.15355 171.069 10.0516C170.449 10.9496 169.55 11.6173 168.51 11.9504L171.936 18.0788H167.879L164.796 12.5895H161.984V18.0788H158.4V1.17316ZM164.533 9.57783C166.714 9.57783 168.221 8.87744 168.221 6.95137C168.221 4.89397 166.714 4.12355 164.533 4.12355H161.966V9.54281L164.533 9.57783Z" fill="#171917"/>
<path d="M177.227 1.17316L181.344 8.22958L185.471 1.17316H189.168L183.035 11.1975V18.0525H179.443V11.1274L173.311 1.17316H177.227Z" fill="#171917"/>
<path d="M190.105 1.17316H203.509V4.15857H198.577V18.0525H194.993V4.17607H190.105V1.17316Z" fill="#171917"/>
<path d="M205.41 1.17316H208.993V11.5739C208.993 14.7257 210.789 15.4611 212.383 15.4611C213.978 15.4611 215.774 14.7082 215.774 11.5739V1.17316H219.357V11.5739C219.357 16.5204 216.203 18.429 212.348 18.429C208.494 18.429 205.41 16.5029 205.41 11.5739V1.17316Z" fill="#171917"/>
<path d="M222.458 1.17316H226.024V15.0671H233.785V18.0525H222.458V1.17316Z" fill="#171917"/>
<path d="M240.855 1.17316H244.78L251 18.07H247.18L246.05 14.6381H239.559L238.429 18.07H234.784L240.855 1.17316ZM245.052 11.6265L242.774 4.71888L240.531 11.6265H245.052Z" fill="#171917"/>
<path d="M50.6275 25.0564C53.7638 25.0564 55.2005 26.93 55.2005 28.8035H52.9578C52.9578 27.7529 52.0818 26.9125 50.645 26.9125C49.2083 26.9125 47.8154 27.8667 47.8154 30.4144C47.8154 32.9621 49.182 34.144 50.645 34.144C50.934 34.1716 51.2256 34.1403 51.5021 34.052C51.7786 33.9637 52.0344 33.8203 52.2538 33.6305C52.4733 33.4406 52.652 33.2082 52.779 32.9473C52.906 32.6865 52.9788 32.4026 52.9929 32.1128H55.1918C55.1918 33.9864 53.7375 36.0175 50.6012 36.0175C47.4649 36.0175 45.4062 33.9864 45.4062 30.4582C45.4062 26.93 47.4912 25.0564 50.6275 25.0564Z" fill="#171917"/>
<path d="M56.9439 25.2928H59.1603V29.3025H63.6808V25.2928H65.906V35.7986H63.6983V31.1586H59.1779V35.7636H56.9439V25.2928Z" fill="#171917"/>
<path d="M71.1624 25.2928H73.589L77.4437 35.7986H75.0783L74.3775 33.6625H70.3476L69.6555 35.7986H67.3603L71.1624 25.2928ZM73.7905 31.7714L72.345 27.4903L70.9609 31.7714H73.7905Z" fill="#171917"/>
<path d="M78.8454 25.2928H82.6563C85.6699 25.2928 87.2468 26.6235 87.2468 28.891C87.2844 29.5679 87.0956 30.2381 86.7102 30.796C86.3248 31.3539 85.7647 31.7679 85.118 31.9728L87.2468 35.7636H84.7676L82.849 32.393H81.0969V35.7899H78.8454V25.284V25.2928ZM82.6563 30.5457C84.0229 30.5457 84.9516 30.1167 84.9516 28.9436C84.9516 27.7704 84.0229 27.1926 82.6563 27.1926H81.0881V30.537L82.6563 30.5457Z" fill="#171917"/>
<path d="M89.0165 25.2928H91.2417V35.7986H89.0165V25.2928Z" fill="#171917"/>
<path d="M92.6521 25.2928H100.992V27.1401H97.926V35.7549H95.7008V27.1401H92.6346V25.2928H92.6521Z" fill="#171917"/>
<path d="M104.058 25.2928L106.625 29.6702L109.183 25.2928H111.479L107.694 31.5175V35.7636H105.478V31.4475L101.676 25.3191H104.058V25.2928Z" fill="#171917"/>
<path d="M117.453 25.2928H124.462V27.1401H119.67V29.7665H123.884V31.6051H119.67V35.7461H117.453V25.2928Z" fill="#171917"/>
<path d="M130.822 25.0564C134.037 25.0564 136.184 27.07 136.184 30.4407C136.184 33.8113 134.037 36 130.822 36C127.607 36 125.461 33.82 125.461 30.4407C125.461 27.0613 127.598 25.0564 130.822 25.0564ZM130.822 34.144C132.364 34.144 133.801 32.8658 133.801 30.4582C133.801 28.0506 132.364 26.9562 130.822 26.9562C129.28 26.9562 127.852 28.0681 127.852 30.4582C127.852 32.8483 129.28 34.144 130.822 34.144Z" fill="#171917"/>
<path d="M137.76 25.2928H139.986V31.7364C139.986 33.68 141.098 34.144 142.079 34.144C143.061 34.144 144.182 33.68 144.182 31.7364V25.2928H146.407V31.7364C146.407 34.7918 144.454 35.9825 142.027 35.9825C139.6 35.9825 137.725 34.7918 137.725 31.7364L137.76 25.2928Z" fill="#171917"/>
<path d="M148.431 25.2928H151.059L155.65 32.6907V25.2928H157.866V35.7986H155.238L150.682 28.3658V35.7636H148.457L148.431 25.2928Z" fill="#171917"/>
<path d="M160.03 25.2928H164.62C167.757 25.2928 169.815 27.0875 169.815 30.4582C169.815 33.8288 167.634 35.7636 164.62 35.7636H160.03V25.2928ZM164.603 33.9163C165.961 33.9163 167.503 32.8658 167.503 30.4144C167.503 27.963 166.075 27.1401 164.603 27.1401H162.255V33.9076L164.603 33.9163Z" fill="#171917"/>
<path d="M173.994 25.2928H176.421L180.276 35.7986H177.902L177.209 33.6625H173.188L172.487 35.7986H170.192L173.994 25.2928ZM176.622 31.7714L175.212 27.4903L173.819 31.7714H176.622Z" fill="#171917"/>
<path d="M179.592 25.2928H187.924V27.1401H184.849V35.7549H182.632V27.1401H179.592V25.2928Z" fill="#171917"/>
<path d="M189.325 25.2928H191.551V35.7986H189.325V25.2928Z" fill="#171917"/>
<path d="M198.647 25.0564C201.853 25.0564 204.008 27.07 204.008 30.4407C204.008 33.8113 201.853 36 198.647 36C195.44 36 193.285 33.82 193.285 30.4407C193.285 27.0613 195.423 25.0564 198.647 25.0564ZM198.647 34.144C200.189 34.144 201.625 32.8658 201.625 30.4582C201.625 28.0506 200.189 26.9562 198.647 26.9562C197.105 26.9562 195.668 28.0681 195.668 30.4582C195.668 32.8483 197.114 34.144 198.647 34.144Z" fill="#171917"/>
<path d="M205.725 25.2928H208.353L212.883 32.6907V25.2928H215.108V35.7986H212.48L207.889 28.4008V35.7986H205.664L205.725 25.2928Z" fill="#171917"/>
<path d="M36.0236 22.2023H30.0226V36H36.0236V22.2023Z" fill="#242B53"/>
<path d="M15.0069 0V28.8035H21.0167V5.99708H30.0226V13.7977H36.0236V0H15.0069Z" fill="#242B53"/>
<path d="M36.0236 14.9971H22.2169V20.9942H36.0236V14.9971Z" fill="#E6A03F"/>
<path d="M6.00101 30.0029V21.0029H13.8067V14.9971H0V36H28.8224V30.0029H6.00101Z" fill="#E6A03F"/>
</g>
<defs>
<clipPath id="clip0_32_1494">
<rect width="251" height="36" fill="white"/>
</clipPath>
</defs>
</svg>
