<?xml version="1.0" encoding="utf-8"?>
<!-- Generator: Adobe Illustrator 22.0.0, SVG Export Plug-In . SVG Version: 6.00 Build 0)  -->
<svg version="1.1" id="Layer_1" xmlns="http://www.w3.org/2000/svg" xmlns:xlink="http://www.w3.org/1999/xlink" x="0px" y="0px"
	 viewBox="0 0 320 80" style="enable-background:new 0 0 320 80;" xml:space="preserve">
<g>
	<path d="M123.5,29.2c-1.4-1.4-2.1-3.7-2.1-6.8V10.9h6.4v10.6c0,2.3,0.4,4,1.2,4.9c0.8,0.9,2,1.4,3.6,1.4c1.5,0,2.7-0.5,3.5-1.5
		c0.8-1,1.2-2.5,1.2-4.5v-11h6.4v13.5l0.6,6.6h-6.2l-0.5-6.6h-0.2c-0.3,2.2-1.2,3.9-2.5,5.1c-1.4,1.2-3.1,1.8-5.3,1.8
		C126.9,31.4,124.9,30.7,123.5,29.2z"/>
	<path d="M148.4,2.8h6.4v16.8h0.3l9.7-8.7h7.7l-9.6,8.7l9.8,11.5H165l-8.1-10l-2,1.6V31h-6.4V2.8z"/>
	<path d="M175.6,10.9h6.4l-0.6,7h0.2c0.3-2.2,1-4,2.2-5.2c1.1-1.3,2.7-1.9,4.7-1.9c0.8,0,1.6,0.1,2.3,0.3l-0.3,5.7
		c-0.6-0.2-1.1-0.4-1.5-0.5c-0.4-0.1-0.9-0.1-1.4-0.1c-3.6,0-5.4,2.4-5.4,7.3V31h-6.4V10.9z"/>
	<path d="M194.2,30.1c-1.4-0.9-2-2.3-2-4c0-3.7,3.1-5.9,9.3-6.6l4.2-0.5c1.1-0.1,1.8-0.3,2.2-0.6c0.4-0.3,0.7-0.8,0.7-1.4
		c0-0.9-0.4-1.7-1.3-2.2c-0.8-0.6-2-0.9-3.4-0.9c-1.4,0-2.5,0.4-3.3,1.1c-0.9,0.7-1.4,1.7-1.5,3l-6.2-0.2c0.2-1.4,0.7-2.7,1.6-3.9
		c0.9-1.2,2.2-2.1,3.8-2.8c1.6-0.7,3.5-1,5.7-1c3.4,0,6.1,0.7,8,2s2.9,3.4,2.9,6.2v6.5l1,6.2h-6.3l-0.4-5h-0.3
		c-0.4,1.6-1.4,3-3.1,3.9c-1.7,1-3.7,1.5-6.1,1.5C197.4,31.5,195.6,31,194.2,30.1z M205.5,27.5c0.9-0.4,1.7-1.1,2.3-1.9
		c0.6-0.8,0.9-1.8,0.9-3v-3h-0.2c-0.2,0.6-0.6,1-1,1.3c-0.5,0.3-1.1,0.5-2,0.7l-3.2,0.5c-2.4,0.5-3.6,1.6-3.6,3.3c0,0.8,0.3,1.5,1,2
		c0.7,0.5,1.6,0.7,2.8,0.7C203.5,28.2,204.5,28,205.5,27.5z"/>
	<path d="M219.6,7.3c-0.9-0.7-1.3-1.5-1.3-2.6c0-1.1,0.4-2,1.3-2.6c0.9-0.7,2-1,3.4-1c1.4,0,2.5,0.3,3.4,1c0.9,0.7,1.3,1.6,1.3,2.6
		c0,1.1-0.4,1.9-1.3,2.6c-0.9,0.7-2,1-3.4,1C221.6,8.3,220.5,7.9,219.6,7.3z M226.1,10.9V31h-6.4V10.9H226.1z"/>
	<path d="M230.7,10.9h6.4l-0.3,6.6h0.2c0.7-4.6,3.3-7,7.8-7c2.6,0,4.7,0.8,6.2,2.5c1.6,1.6,2.3,4,2.3,7.2V31H247V21
		c0-2.3-0.4-4-1.2-5.1c-0.8-1.1-2-1.7-3.7-1.7c-3.4,0-5.1,1.9-5.1,5.8V31h-6.4V10.9z"/>
	<path d="M257.6,7.3c-0.9-0.7-1.3-1.5-1.3-2.6c0-1.1,0.4-2,1.3-2.6c0.9-0.7,2-1,3.4-1c1.4,0,2.5,0.3,3.4,1c0.9,0.7,1.3,1.6,1.3,2.6
		c0,1.1-0.4,1.9-1.3,2.6c-0.9,0.7-2,1-3.4,1C259.6,8.3,258.5,7.9,257.6,7.3z M264.2,10.9V31h-6.4V10.9H264.2z"/>
	<path d="M269.8,30.1c-1.4-0.9-2-2.3-2-4c0-3.7,3.1-5.9,9.3-6.6l4.2-0.5c1.1-0.1,1.8-0.3,2.2-0.6c0.4-0.3,0.7-0.8,0.7-1.4
		c0-0.9-0.4-1.7-1.3-2.2c-0.8-0.6-2-0.9-3.4-0.9c-1.4,0-2.5,0.4-3.3,1.1c-0.9,0.7-1.4,1.7-1.5,3l-6.2-0.2c0.2-1.4,0.7-2.7,1.6-3.9
		c0.9-1.2,2.2-2.1,3.8-2.8c1.6-0.7,3.5-1,5.7-1c3.4,0,6.1,0.7,8,2c2,1.4,2.9,3.4,2.9,6.2v6.5l1,6.2h-6.3l-0.4-5h-0.3
		c-0.4,1.6-1.4,3-3.1,3.9c-1.7,1-3.7,1.5-6.1,1.5C273,31.5,271.1,31,269.8,30.1z M281,27.5c0.9-0.4,1.7-1.1,2.3-1.9
		c0.6-0.8,0.9-1.8,0.9-3v-3H284c-0.2,0.6-0.6,1-1,1.3c-0.5,0.3-1.1,0.5-2,0.7l-3.2,0.5c-2.4,0.5-3.6,1.6-3.6,3.3c0,0.8,0.3,1.5,1,2
		c0.7,0.5,1.6,0.7,2.8,0.7C279.1,28.2,280.1,28,281,27.5z"/>
	<path d="M295.3,10.9h6.4l-0.3,6.6h0.2c0.7-4.6,3.3-7,7.8-7c2.6,0,4.7,0.8,6.2,2.5c1.6,1.6,2.3,4,2.3,7.2V31h-6.4V21
		c0-2.3-0.4-4-1.2-5.1c-0.8-1.1-2-1.7-3.7-1.7c-3.4,0-5.1,1.9-5.1,5.8V31h-6.4V10.9z"/>
</g>
<g>
	<path d="M121.5,41.9h6.4v13.2h0.2c0.4-1.6,1.1-2.9,2.3-4c1.2-1,2.9-1.5,5.1-1.5c2.7,0,4.8,0.8,6.3,2.5c1.5,1.7,2.2,4.1,2.2,7.2
		v10.9h-6.4v-9.9c0-2.4-0.4-4.2-1.1-5.2c-0.7-1.1-1.9-1.6-3.6-1.6c-1.6,0-2.9,0.5-3.7,1.4c-0.9,1-1.3,2.3-1.3,4v11.3h-6.4V41.9z"/>
	<path d="M150.4,68.3c-1.4-1.4-2.1-3.7-2.1-6.8V49.9h6.4v10.6c0,2.3,0.4,4,1.2,4.9c0.8,0.9,2,1.4,3.6,1.4c1.5,0,2.7-0.5,3.5-1.5
		c0.8-1,1.2-2.5,1.2-4.5v-11h6.4v13.5l0.6,6.6h-6.2l-0.5-6.6h-0.2c-0.3,2.2-1.2,3.9-2.5,5.1c-1.4,1.2-3.1,1.8-5.3,1.8
		C153.8,70.4,151.8,69.7,150.4,68.3z"/>
	<path d="M184.5,69.1c-1.5-1-2.6-2.4-3.1-4.1h-0.2l0.5,5.1h-6.4V41.9h6.4V54h0.1c0.5-1.4,1.4-2.6,2.9-3.4c1.5-0.9,3.2-1.3,5.2-1.3
		c2.1,0,4.1,0.5,5.7,1.4c1.7,0.9,3,2.2,3.9,3.8c0.9,1.6,1.4,3.5,1.4,5.5c0,2.1-0.5,4-1.4,5.6c-0.9,1.6-2.3,2.9-3.9,3.8
		c-1.7,0.9-3.6,1.4-5.7,1.4C187.9,70.7,186.1,70.2,184.5,69.1z M192.8,65.2c1.2-1.4,1.8-3.1,1.8-5.3c0-2.1-0.6-3.9-1.8-5.2
		c-1.2-1.3-2.7-2-4.7-2c-1.9,0-3.5,0.7-4.7,2c-1.2,1.3-1.8,3.1-1.8,5.2c0,2.2,0.6,3.9,1.8,5.3c1.2,1.4,2.8,2,4.7,2
		C190,67.2,191.6,66.5,192.8,65.2z"/>
</g>
<path d="M48.1,49.4h-2C41.6,64.9,25.6,76.4,6.4,76.4c-0.1,0-0.2,0-0.3,0V79H88v-2.6c-0.1,0-0.2,0-0.3,0
	C68.6,76.4,52.5,64.9,48.1,49.4z"/>
<path d="M46.1,31.8h2c4.5-15.5,20.6-27,39.7-27c0.1,0,0.2,0,0.3,0V2.2H6.1v2.6c0.1,0,0.2,0,0.3,0C25.5,4.8,41.6,16.3,46.1,31.8z"/>
<path d="M90.6,37.7c-0.7-0.3-1.6-0.6-2.6-0.9c-1.5-0.4-3.3-0.8-5.3-1.2c-3-0.5-6.6-1-10.5-1.3c-3.7-0.3-7.7-0.6-12-0.8
	c-2.8-0.1-5.7-0.2-8.8-0.2v1.4c2,0,3.9,0.1,5.7,0.2c3.2,0.1,6.2,0.3,8.9,0.6c2.8,0.3,5.2,0.6,7.2,0.9c2.1,0.4,3.6,0.8,4.5,1.3
	c0.9,0.5,0.9,1,0,1.5c-0.9,0.5-2.7,1-5.4,1.5c-2.8,0.5-6.4,0.8-10.6,1.1c-4.3,0.3-9.2,0.4-14.5,0.4c-0.1,0-0.1,0-0.2,0
	c-0.1,0-0.1,0-0.2,0c-5.2,0-10.1-0.2-14.5-0.4c-4.3-0.3-7.9-0.7-10.6-1.1c-2.6-0.4-4.5-0.9-5.4-1.5c-0.9-0.5-0.9-1,0-1.5
	c0.8-0.5,2.4-0.9,4.5-1.3c2-0.4,4.5-0.7,7.2-0.9c2.7-0.3,5.7-0.4,8.9-0.6c1.8-0.1,3.7-0.1,5.7-0.2v-1.4c-3,0-6,0.1-8.8,0.2
	c-4.2,0.2-8.3,0.4-12,0.8c-3.9,0.4-7.4,0.8-10.5,1.3c-2,0.4-3.8,0.7-5.3,1.2c-1,0.3-1.8,0.6-2.6,0.9c-2.1,0.9-2.9,1.8-2.5,2.6
	c0.4,0.9,2.1,1.8,5,2.6C6.4,43,6.7,43,7,43.1c3.7,0.9,9,1.7,15.8,2.3c6.7,0.6,14.6,0.9,23.2,1h2.3c8.6,0,16.5-0.4,23.2-1
	c6.7-0.6,12.1-1.4,15.8-2.3c0.3-0.1,0.6-0.1,0.8-0.2c2.9-0.8,4.6-1.7,5-2.6C93.5,39.4,92.7,38.5,90.6,37.7z"/>
</svg>
